<svg width="203" height="123" viewBox="0 0 203 123" fill="none" xmlns="http://www.w3.org/2000/svg">
<path fill-rule="evenodd" clip-rule="evenodd" d="M21.9027 6.63659L132.453 6.61103L128.544 24.8739L199.309 24.8575L180.416 116.498L90.7365 116.518L95.6226 92.7115L3.00849 92.7329L21.9027 6.63659ZM107.152 25.4054L99.4027 25.4054L96.1021 44.2844C93.9496 40.4653 90.0751 38.5198 84.4786 38.5198C80.8193 38.5198 77.5188 39.5286 74.5052 41.4021C71.4917 43.2756 69.124 45.9417 67.4019 49.2564C65.6799 52.571 64.8189 56.318 64.8189 60.3532C64.8189 63.3796 65.3929 66.1178 66.6844 68.5677C67.9759 71.0177 69.7697 72.8912 72.0657 74.2603C74.3617 75.6294 76.9448 76.2779 79.9583 76.2779C82.3978 76.2779 84.6221 75.8455 86.6311 74.9088C88.5683 73.972 90.2186 72.675 91.6536 71.0177L91.7254 75.8455L98.2547 75.8455L107.152 25.4054ZM88.2813 67.703C86.3441 69.0721 84.1198 69.7207 81.6085 69.7207C78.882 69.7207 76.6578 68.856 75.0793 67.0545C73.5007 65.2531 72.7115 62.659 72.7115 59.3444C72.7115 57.0386 73.2137 54.7327 74.2182 52.571C75.2228 50.4093 76.7295 48.6078 78.6668 47.2387C80.5323 45.8697 82.7566 45.1491 85.3396 45.1491C88.0661 45.1491 90.2186 46.0858 91.7971 47.8152C93.3756 49.6166 94.2366 52.1386 94.2366 55.4533C94.2366 57.8312 93.6626 60.137 92.6581 62.2987C91.6536 64.5325 90.1469 66.334 88.2813 67.703ZM53.021 40.3933C50.6532 39.1683 47.9267 38.5198 44.7697 38.5198C40.6082 38.5198 36.9489 39.5286 33.8636 41.4021C30.7784 43.2756 28.4106 45.8697 26.7603 49.1122C25.1101 52.4269 24.3208 56.0297 24.3208 59.9929C24.3208 63.1634 24.9666 65.9737 26.3298 68.4236C27.6931 70.8736 29.6304 72.8191 32.2134 74.1882C34.7964 75.6294 37.7382 76.2779 41.1822 76.2779C45.559 76.2779 49.29 75.197 52.447 72.8912C55.5323 70.6574 57.613 67.4869 58.6893 63.4517L50.9402 63.4517C49.9357 65.6134 48.716 67.2707 47.281 68.3516C45.846 69.4324 43.8369 69.9368 41.3257 69.9368C38.4557 69.9368 36.2314 69.0721 34.5811 67.1986C32.8591 65.3252 32.0699 63.1634 32.0699 60.5694C32.0699 60.065 32.0699 59.6326 32.1416 59.2003L59.6938 59.2003C60.1243 57.4709 60.3396 55.5253 60.3396 53.3636C60.3396 50.4813 59.6938 47.8873 58.474 45.6535C57.1825 43.4197 55.3888 41.6903 53.021 40.3933ZM52.2318 53.3636L33.3614 53.3636C34.0071 50.8416 35.2986 48.752 37.3077 47.1667C39.2449 45.5814 41.5409 44.7888 44.1957 44.7888C46.6352 44.7888 48.6442 45.5094 50.0792 46.8064C51.5143 48.1034 52.3035 49.9769 52.3035 52.3548C52.3035 52.6081 52.2789 52.8366 52.2585 53.026C52.2441 53.1598 52.2318 53.2741 52.2318 53.3636ZM134.771 73.9005L120.083 42.2451L136.309 41.8928L145.658 62.3169L162.422 41.6259L178.37 41.463L152.49 73.7195L168.032 106.858L151.618 107.026L141.602 85.2098L123.64 107.312L107.785 107.474L134.771 73.9005Z" fill="#4D4D4D"/>
</svg>
