<svg width="24" height="24" viewBox="0 0 24 24" fill="none" xmlns="http://www.w3.org/2000/svg">
<path d="M10.4985 1.5C9.70285 1.5 8.93979 1.81607 8.37718 2.37868C7.81457 2.94129 7.4985 3.70435 7.4985 4.5V16.5C7.4985 17.2956 7.81457 18.0587 8.37718 18.6213C8.93979 19.1839 9.70285 19.5 10.4985 19.5H18C18.7956 19.5 19.5587 19.1839 20.1213 18.6213C20.6839 18.0587 21 17.2956 21 16.5V8.25H20.997V6.621C20.9969 6.02468 20.76 5.4528 20.3385 5.031L17.4675 2.1585C17.0457 1.73697 16.4738 1.50013 15.8775 1.5H10.497H10.4985ZM18 18H10.4985C10.1007 18 9.71914 17.842 9.43784 17.5607C9.15654 17.2794 8.9985 16.8978 8.9985 16.5V4.5C8.9985 4.10218 9.15654 3.72064 9.43784 3.43934C9.71914 3.15804 10.1007 3 10.4985 3H14.9985V5.25C14.9985 5.84674 15.2356 6.41903 15.6575 6.84099C16.0795 7.26295 16.6518 7.5 17.2485 7.5H19.4985V9.0915H19.5V16.5C19.5 16.8978 19.342 17.2794 19.0607 17.5607C18.7794 17.842 18.3978 18 18 18ZM19.1865 6H17.247C17.0481 6 16.8573 5.92098 16.7167 5.78033C16.576 5.63968 16.497 5.44891 16.497 5.25V3.3105L19.1865 6ZM4.5 6C4.5 5.60218 4.65804 5.22064 4.93934 4.93934C5.22064 4.65804 5.60218 4.5 6 4.5V16.5C6 17.6935 6.47411 18.8381 7.31802 19.682C8.16193 20.5259 9.30653 21 10.5 21H18C18 21.3978 17.842 21.7794 17.5607 22.0607C17.2794 22.342 16.8978 22.5 16.5 22.5H10.185C8.67724 22.5 7.23124 21.901 6.1651 20.8349C5.09895 19.7688 4.5 18.3228 4.5 16.815V6Z" fill="#A0A0A0"/>
</svg>
