<svg width="267" height="267" viewBox="0 0 267 267" fill="none" xmlns="http://www.w3.org/2000/svg">
<g clip-path="url(#clip0_11_32)">
<path d="M96.6521 63.3039C94.3331 61.9687 91.4782 61.9704 89.1608 63.3084C86.8433 64.6464 85.4144 67.1179 85.4112 69.7939L85.2291 221.895C85.2259 224.576 86.654 227.054 88.9748 228.396C91.2957 229.738 94.1562 229.739 96.4779 228.398L228.474 152.19C230.796 150.85 232.226 148.372 232.224 145.691C232.222 143.01 230.79 140.534 228.467 139.197L96.6521 63.3039Z" fill="#DDF247" stroke="#E9E9E9" stroke-width="14.9983" stroke-linejoin="round"/>
<path d="M101.071 119.325L133.951 100.42L101.944 160.377L162.681 123.919L108.954 192.919L189.431 144.349" stroke="black" stroke-width="7.49915" stroke-linejoin="bevel"/>
</g>
<defs>
<clipPath id="clip0_11_32">
<rect width="194.978" height="194.978" fill="white" transform="translate(0 97.489) rotate(-30)"/>
</clipPath>
</defs>
</svg>
