<svg width="37" height="34" viewBox="0 0 37 34" fill="none" xmlns="http://www.w3.org/2000/svg">
<path d="M6.16479 29.481C3.38192 24.7801 2.06345 18.2572 1.79192 17.6276C1.52039 16.9981 8.95351 24.6975 9.6059 26.2096C10.2583 27.7217 7.18028 16.8398 5.43583 13.0765" stroke="#FF6868" stroke-width="1.74555" stroke-linecap="round"/>
<path d="M28.0923 3.71864C28.4407 7.85061 27.9348 18.0004 27.5063 17.4831C27.0777 16.9657 23.0685 6.06541 23.1077 6.74969C23.1469 7.43397 22.9839 17.5431 23.1511 19.381C23.3182 21.219 18.2331 12.6655 16.4694 5.90079" stroke="#FF6868" stroke-width="1.74555" stroke-linecap="round"/>
<path d="M14.4938 10.6759C8.90936 14.1954 9.04514 14.5101 8.86557 14.9604C8.686 15.4107 10.495 18.7377 10.7666 19.3672M19.4697 20.4775C18.6594 21.1989 13.5261 24.8976 12.9392 24.4036C12.3523 23.9096 11.0382 19.9968 10.7666 19.3672M10.7666 19.3672C11.3594 18.9035 13.8523 16.4686 16.5306 15.3974" stroke="#FF6868" stroke-width="1.74555" stroke-linecap="round" stroke-linejoin="round"/>
<path d="M16.6015 29.5647C17.2285 29.8159 21.7225 32.1228 24.2709 32.6116C26.8192 33.1004 22.1466 29.4203 19.8382 24.069" stroke="#FF6868" stroke-width="1.74555" stroke-linecap="round"/>
<path d="M31.308 1.26857C33.8988 6.30181 34.8315 9.04912 35.2065 13.7721" stroke="#FF6868" stroke-width="1.74555" stroke-linecap="round"/>
<path d="M35.3438 16.4951C35.1839 16.5606 35.2022 16.5975 35.3341 16.6634" stroke="#FF6868" stroke-width="1.74555" stroke-linecap="round"/>
</svg>
