<svg width="24" height="24" viewBox="0 0 24 24" fill="none" xmlns="http://www.w3.org/2000/svg">
<path d="M9.536 13H7.32899C7.09277 13.6671 6.62831 14.2292 6.01772 14.587C5.40713 14.9448 4.68972 15.0752 3.99228 14.9551C3.29485 14.8351 2.6623 14.4724 2.20642 13.9311C1.75055 13.3898 1.50071 12.7048 1.50107 11.9971C1.50142 11.2894 1.75194 10.6046 2.20836 10.0638C2.66477 9.52295 3.29769 9.16088 3.99524 9.04155C4.6928 8.92223 5.41008 9.05335 6.02031 9.41173C6.63054 9.77011 7.09443 10.3327 7.32999 11H9.536L13 5.00002H16.17C16.4056 4.33268 16.8694 3.77011 17.4797 3.41173C18.0899 3.05335 18.8072 2.92223 19.5047 3.04155C20.2023 3.16088 20.8352 3.52296 21.2916 4.0638C21.748 4.60464 21.9986 5.28942 21.9989 5.9971C21.9993 6.70479 21.7494 7.38982 21.2936 7.93112C20.8377 8.47241 20.2051 8.83512 19.5077 8.95514C18.8103 9.07516 18.0929 8.94476 17.4823 8.58699C16.8717 8.22922 16.4072 7.66711 16.171 7.00002H14.154L11.268 11.999L14.155 17H16.171C16.4069 16.3328 16.8711 15.7705 17.4815 15.4124C18.0919 15.0543 18.8092 14.9235 19.5067 15.0432C20.2042 15.1629 20.837 15.5253 21.2931 16.0664C21.7492 16.6074 21.9994 17.2923 21.9994 18C21.9994 18.7077 21.7492 19.3926 21.2931 19.9337C20.837 20.4747 20.2042 20.8371 19.5067 20.9568C18.8092 21.0765 18.0919 20.9457 17.4815 20.5876C16.8711 20.2296 16.4069 19.6672 16.171 19H13L9.536 13ZM19 17C18.7348 17 18.4804 17.1054 18.2929 17.2929C18.1054 17.4804 18 17.7348 18 18C18 18.2652 18.1054 18.5196 18.2929 18.7071C18.4804 18.8947 18.7348 19 19 19C19.2652 19 19.5196 18.8947 19.7071 18.7071C19.8946 18.5196 20 18.2652 20 18C20 17.7348 19.8946 17.4804 19.7071 17.2929C19.5196 17.1054 19.2652 17 19 17ZM4.49999 11C4.23478 11 3.98042 11.1054 3.79289 11.2929C3.60535 11.4804 3.49999 11.7348 3.49999 12C3.49999 12.2652 3.60535 12.5196 3.79289 12.7071C3.98042 12.8947 4.23478 13 4.49999 13C4.76521 13 5.01957 12.8947 5.2071 12.7071C5.39464 12.5196 5.49999 12.2652 5.49999 12C5.49999 11.7348 5.39464 11.4804 5.2071 11.2929C5.01957 11.1054 4.76521 11 4.49999 11ZM19 5.00002C18.7348 5.00002 18.4804 5.10537 18.2929 5.29291C18.1054 5.48045 18 5.7348 18 6.00002C18 6.26523 18.1054 6.51959 18.2929 6.70712C18.4804 6.89466 18.7348 7.00002 19 7.00002C19.2652 7.00002 19.5196 6.89466 19.7071 6.70712C19.8946 6.51959 20 6.26523 20 6.00002C20 5.7348 19.8946 5.48045 19.7071 5.29291C19.5196 5.10537 19.2652 5.00002 19 5.00002Z" fill="#A0A0A0"/>
</svg>
