<svg width="24" height="26" viewBox="0 0 24 26" fill="none" xmlns="http://www.w3.org/2000/svg">
<path d="M19.0319 7.49113C17.6443 7.47429 16.4995 6.62687 15.9556 5.42287L14.3184 5.403C13.5696 5.39391 12.9573 5.99153 12.9482 6.74032L12.8905 11.4996L16.2114 11.5399L16.1808 14.057L12.8599 14.0167L12.8045 18.5856C12.7954 19.3344 13.393 19.9467 14.1418 19.9558L15.779 19.9756C16.3519 18.7852 17.5169 17.9658 18.9045 17.9827C20.7735 18.0053 22.2705 19.5382 22.2478 21.4081C22.2251 23.278 20.6914 24.7741 18.8224 24.7514C17.4348 24.7346 16.29 23.8871 15.7461 22.6831L14.1089 22.6633C11.8668 22.6361 10.0698 20.7949 10.097 18.5527L10.1524 13.9838L7.16148 13.9475C6.62661 15.1384 5.4235 15.9574 4.03591 15.9405C2.16605 15.9178 0.669929 14.3849 0.692624 12.5151C0.715318 10.6452 2.2482 9.1491 4.11807 9.1718C5.50565 9.18864 6.68853 10.0365 7.19434 11.2401L10.1853 11.2764L10.2407 6.70746C10.268 4.46447 12.1091 2.6683 14.3513 2.69551L15.9884 2.71538C16.5614 1.52705 17.7264 0.705554 19.114 0.722395C20.983 0.745079 22.48 2.27882 22.4573 4.14784C22.4346 6.0177 20.9009 7.51381 19.0319 7.49113ZM18.0576 4.09444C18.0508 4.65497 18.5001 5.11527 19.0606 5.12207C19.6212 5.12887 20.0815 4.67962 20.0883 4.11908C20.0951 3.55855 19.6458 3.09825 19.0853 3.09145C18.5247 3.08465 18.0644 3.5339 18.0576 4.09444ZM17.8481 21.3547C17.8413 21.9174 18.2906 22.3755 18.8511 22.3823C19.4117 22.3891 19.8719 21.942 19.8788 21.3794C19.8856 20.8167 19.4363 20.3585 18.8758 20.3517C18.3152 20.3449 17.855 20.7921 17.8481 21.3547ZM5.0923 12.5685C5.09913 12.0058 4.65196 11.5477 4.08931 11.5409C3.52666 11.534 3.06851 11.9812 3.06168 12.5438C3.05485 13.1065 3.50202 13.5646 4.06467 13.5715C4.62732 13.5783 5.08547 13.1311 5.0923 12.5685Z" fill="#DDF247"/>
<path d="M19.2212 16.2941C17.3287 16.2711 15.8137 14.671 15.8374 12.7201C15.8611 10.7691 17.4145 9.20624 19.3069 9.22921C21.1994 9.25218 22.7144 10.8523 22.6907 12.8032C22.6671 14.7541 21.1137 16.317 19.2212 16.2941ZM19.2768 11.7137C18.7154 11.7069 18.2546 12.1706 18.2475 12.7493C18.2405 13.328 18.6899 13.8027 19.2514 13.8096C19.8128 13.8164 20.2736 13.3527 20.2806 12.774C20.2876 12.1952 19.8382 11.7205 19.2768 11.7137Z" fill="#DDF247"/>
</svg>
