<svg width="24" height="24" viewBox="0 0 24 24" fill="none" xmlns="http://www.w3.org/2000/svg">
<path d="M9.5 3.69141C9.5 5.20488 8.57656 6.46458 7.25 7.07366V11.125C8.13125 10.622 9.15781 10.3359 10.25 10.3359H14.75C16.4047 10.3359 17.75 9.01165 17.75 7.38281V7.07366C16.4234 6.46458 15.5 5.20488 15.5 3.69141C15.5 1.65283 17.1781 0 19.25 0C21.3219 0 23 1.65283 23 3.69141C23 5.20488 22.0766 6.46458 20.75 7.07366V7.38281C20.75 10.6451 18.0641 13.2891 14.75 13.2891H10.25C8.59531 13.2891 7.25 14.6134 7.25 16.2422V16.5513C8.57656 17.1189 9.5 18.4201 9.5 19.9336C9.5 21.9731 7.82188 23.625 5.75 23.625C3.67906 23.625 2 21.9731 2 19.9336C2 18.4201 2.92578 17.1189 4.25 16.5513V7.07366C2.92578 6.46458 2 5.20488 2 3.69141C2 1.65283 3.67906 0 5.75 0C7.82188 0 9.5 1.65283 9.5 3.69141ZM5.75 4.79883C6.37109 4.79883 6.875 4.3028 6.875 3.69141C6.875 3.08002 6.37109 2.58398 5.75 2.58398C5.12891 2.58398 4.625 3.08002 4.625 3.69141C4.625 4.3028 5.12891 4.79883 5.75 4.79883ZM19.25 2.58398C18.6266 2.58398 18.125 3.08002 18.125 3.69141C18.125 4.3028 18.6266 4.79883 19.25 4.79883C19.8734 4.79883 20.375 4.3028 20.375 3.69141C20.375 3.08002 19.8734 2.58398 19.25 2.58398ZM5.75 21.041C6.37109 21.041 6.875 20.5473 6.875 19.9336C6.875 19.3199 6.37109 18.8262 5.75 18.8262C5.12891 18.8262 4.625 19.3199 4.625 19.9336C4.625 20.5473 5.12891 21.041 5.75 21.041Z" fill="black"/>
</svg>
